# AST/ASF file generated using VICON BodyLanguage
# -----------------------------------------------
:version 1.10
:name VICON
:units
  mass 1.0
  length 0.45
  angle deg
:documentation
   .ast/.asf automatically generated from VICON data using
   VICON BodyBuilder and BodyLanguage model FoxedUp or BRILLIANT.MOD
:root
   order TX TY TZ RX RY RZ
   axis XYZ
   position 0 0 0  
   orientation 0 0 0 
:bonedata
  begin
     id 1 
     name lhipjoint
     direction 0.702568 -0.596508 0.388042 
     length 2.56661 
     axis 0 0 0  XYZ
  end
  begin
     id 2 
     name lfemur
     direction 0.34202 -0.939693 0  
     length 6.58374  
     axis 0 0 20  XYZ
    dof rx ry rz
    limits (-160.0 20.0)
           (-70.0 70.0)
           (-60.0 70.0)
  end
  begin
     id 3 
     name ltibia
     direction 0.34202 -0.939693 0   
     length 6.62538   
     axis 0 0 20   XYZ
    dof rx
    limits (-10.0 170.0)
  end
  begin
     id 4 
     name lfoot
     direction 0.10455 -0.287249 0.952133   
     length 2.26699   
     axis -90 7.62852e-016 20   XYZ
    dof rx rz
    limits (-45.0 90.0)
           (-70.0 20.0)
  end
  begin
     id 5 
     name ltoes
     direction 1.53572e-011 -4.22322e-011 1   
     length 1.12949   
     axis -90 7.62852e-016 20   XYZ
    dof rx
    limits (-90.0 20.0)
  end
  begin
     id 6 
     name rhipjoint
     direction -0.728055 -0.574632 0.373811   
     length 2.66432  
     axis 0 0 0  XYZ 
  end
  begin
     id 7 
     name rfemur
     direction -0.34202 -0.939693 0   
     length 6.66732   
     axis 0 0 -20   XYZ
    dof rx ry rz
    limits (-160.0 20.0)
           (-70.0 70.0)
           (-70.0 60.0)
  end
  begin
     id 8 
     name rtibia
     direction -0.34202 -0.939693 0   
     length 6.59288   
     axis 0 0 -20   XYZ
    dof rx
    limits (-10.0 170.0)
 end
 begin
     id 9 
     name rfoot
     direction -0.119193 -0.327479 0.93731   
     length 2.38061  
     axis -90 -7.62852e-016 -20   XYZ
    dof rx rz
    limits (-45.0 90.0)
           (-20.0 70.0)
  end
  begin
     id 10 
     name rtoes
     direction -1.53547e-011 -4.21827e-011 1   
     length 1.17899   
     axis -90 -7.62852e-016 -20   XYZ
    dof rx
    limits (-90.0 20.0)
  end
  begin
     id 11 
     name lowerback
     direction -0.000416114 0.999912 -0.0132284   
     length 2.12109   
     axis 0 0 0   XYZ
    dof rx ry rz
    limits (-20.0 45.0)
           (-30.0 30.0)
           (-30.0 30.0)
  end
  begin
     id 12 
     name upperback
     direction -0.00136371 0.99809 0.0617608   
     length 2.10067   
     axis 0 0 0   XYZ
    dof rx ry rz
    limits (-20.0 45.0)
           (-30.0 30.0)
           (-30.0 30.0)
  end
  begin
     id 13 
     name thorax
     direction -3.43026e-005 0.997776 0.0666515   
     length 2.10618   
     axis 0 0 0   XYZ
    dof rx ry rz
    limits (-20.0 45.0)
           (-30.0 30.0)
           (-30.0 30.0)
  end
  begin
     id 14 
     name lowerneck
     direction 0.0398646 0.998418 0.0396592   
     length 1.83817   
     axis 0 0 0   XYZ
    dof rx ry rz
    limits (-20.0 45.0)
           (-30.0 30.0)
           (-30.0 30.0)
  end
  begin
     id 15 
     name upperneck
     direction -0.0367268 0.961527 -0.272244   
     length 1.81975   
     axis 0 0 0   XYZ
    dof rx ry rz
    limits (-20.0 45.0)
           (-30.0 30.0)
           (-30.0 30.0)
  end
  begin
     id 16
     name head
     direction -0.0182665 0.99536 -0.0944669  
     length 1.86026  
     axis 0 0 0   XYZ
    dof rx ry rz
    limits (-20.0 45.0)
           (-30.0 30.0)
           (-30.0 30.0)
  end
  begin
     id 17 
     name lclavicle
     direction 0.924239 0.361045 0.124212  
     length 3.26878  
     axis 0 0 0   XYZ
    dof ry rz
    limits (-20.0 10.0)
           (0.0 20.0)
  end
  begin
     id 18 
     name lhumerus
     direction 1 -4.48968e-011 -2.56583e-027   
     length 4.58538   
     axis 180 -30 -90   XYZ
    dof rx ry rz
    limits (-60.0 90.0)
           (-90.0 90.0)
           (-90.0 90.0)
  end
  begin
     id 19
     name lradius
     direction 1 -4.4898e-011 -5.50375e-027   
     length 2.68935   
     axis 180 -30 -90   XYZ
    dof rx
    limits (-10.0 170.0)
  end
  begin
     id 20
     name lwrist
     direction 1 -4.48939e-011 -1.48955e-026   
     length 1.34468   
     axis 9.0955e-015 90 90   XYZ
    dof ry
    limits (-180.0 0.0)
 end
  begin
     id 21 
     name lhand
     direction 1 -4.48936e-011 -2.97907e-026   
     length 0.585058   
     axis 1.90115e-014 90 90   XYZ
    dof rx rz
    limits (-90.0 90.0)
           (-45.0 45.0)
  end
  begin
     id 22 
     name lfingers
     direction 1 -4.49082e-011 -5.96235e-026   
     length 0.471689   
     axis 3.80223e-014 90 90   XYZ
    dof rx
    limits (0.0 90.0)
  end
  begin
     id 23
     name lthumb
     direction 0.707107 -6.3489e-011 0.707107   
     length 0.677253   
     axis -90 45 -3.84942e-014   XYZ
    dof rx rz
    limits (-45.0 45.0)
           (-45.0 45.0)
  end
  begin
     id 24 
     name rclavicle
     direction -0.923098 0.371783 0.0983239   
     length 3.19656  
     axis 0 0 0   XYZ 
    dof ry rz
    limits (-10.0 20.0)
           (-20.0 0.0)
  end
  begin
     id 25 
     name rhumerus
     direction -1 -4.48976e-011 -2.5492e-027  
     length 4.4745   
     axis 180 30 90   XYZ
    dof rx ry rz
    limits (-90.0 60.0)
           (-90.0 90.0)
           (-90.0 90.0)
  end
  begin
     id 26 
     name rradius
     direction -1 -4.48941e-011 -4.36555e-027   
     length 2.93896   
     axis 180 30 90   XYZ
    dof rx
    limits (-10.0 170.0)
  end
  begin
     id 27 
     name rwrist
     direction -1 -4.49044e-011 -1.49032e-026   
     length 1.46948   
     axis 9.0955e-015 -90 -90   XYZ
    dof ry
    limits (-180.0 0.0)
  end
  begin
     id 28
     name rhand
     direction -1 -4.48826e-011 -2.97749e-026   
     length 0.405092   
     axis 1.90115e-014 -90 -90   XYZ
    dof rx rz
    limits (-90.0 90.0)
           (-45.0 45.0)
  end
  begin
     id 29
     name rfingers
     direction -1 -4.49209e-011 -5.96602e-026   
     length 0.326596   
     axis 3.80223e-014 -90 -90   XYZ
    dof rx
    limits (0.0 90.0)
  end
  begin
     id 30
     name rthumb
     direction -0.707107 -6.34776e-011 0.707107   
     length 0.468928   
     axis -90 -45 3.84942e-014   XYZ
    dof rx rz
    limits (-45.0 45.0)
           (-45.0 45.0)
  end
:hierarchy
  begin
    root lhipjoint rhipjoint lowerback
    lhipjoint lfemur
    lfemur ltibia
    ltibia lfoot
    lfoot ltoes
    rhipjoint rfemur
    rfemur rtibia
    rtibia rfoot
    rfoot rtoes
    lowerback upperback
    upperback thorax
    thorax lowerneck lclavicle rclavicle
    lowerneck upperneck
    upperneck head
    lclavicle lhumerus
    lhumerus lradius
    lradius lwrist
    lwrist lhand lthumb
    lhand lfingers
    rclavicle rhumerus
    rhumerus rradius
    rradius rwrist
    rwrist rhand rthumb
    rhand rfingers
  end

#!OML:ASF H:\Punching\Project 1\Capture day 1\Session 1\female.ASF
:FULLY-SPECIFIED
:DEGREES
613
root 1.68528 15.4106 8.51306 10.9987 -11.4912 0.499073
lowerback 0.297532 -0.271209 0.910392
upperback -6.31195 -0.421862 -1.33695
thorax -6.74496 -0.312112 -1.8773
lowerneck -3.33612 9.86092 16.8263
upperneck 26.6662 14.3788 -9.79678
head 11.1413 7.35651 -4.67887
rclavicle 2.29721e-014 9.93923e-015
rhumerus -42.1921 28.2143 -95.085
rradius 88.3353
rwrist -24.3735
rhand 1.26432 -14.7381
rfingers 7.12502
rthumb 26.8008 -42.8592
lclavicle 2.29721e-014 9.93923e-015
lhumerus -1.26471 -24.775 48.4499
lradius 101.23
lwrist 16.8325
lhand -5.06078 18.2788
lfingers 7.12502
lthumb 20.735 47.191
rfemur -7.27498 5.67483 11.4373
rtibia 26.0341
rfoot -22.7863 -14.5357
rtoes -15.2837
lfemur -30.0203 -4.61282 -5.32013
ltibia 23.6393
lfoot -0.601596 18.7423
ltoes -0.920718
614
root 1.59958 15.4225 8.42055 11.0574 -11.3477 0.505798
lowerback 0.360521 -0.313296 1.05098
upperback -6.26063 -0.474726 -1.38821
thorax -6.73105 -0.347331 -2.00618
lowerneck -3.21079 9.92135 16.8379
upperneck 26.174 14.5162 -10.0684
head 10.973 7.39743 -4.76045
rclavicle -4.98204e-015 2.18663e-014
rhumerus -41.896 28.5736 -95.4432
rradius 86.9146
rwrist -24.4096
rhand 1.069 -14.784
rfingers 7.12502
rthumb 26.6139 -42.9336
lclavicle -4.98204e-015 2.18663e-014
lhumerus -2.71486 -26.8819 49.3928
lradius 100.426
lwrist 14.5202
lhand -4.19643 17.2484
lfingers 7.12502
lthumb 21.5653 46.0677
rfemur -7.64068 5.66102 11.8589
rtibia 26.1091
rfoot -22.8857 -14.6894
rtoes -14.5911
lfemur -29.7656 -5.35148 -4.62665
ltibia 22.38
lfoot 0.173332 19.7884
ltoes 0.124255
615
root 1.51454 15.4353 8.32779 11.1476 -11.1858 0.485229
lowerback 0.394598 -0.366713 1.20903
upperback -6.20735 -0.541274 -1.42421
thorax -6.69944 -0.389575 -2.12813
lowerneck -3.08815 9.98853 16.8616
upperneck 25.6619 14.6601 -10.3517
head 10.8031 7.44219 -4.84645
rclavicle 1.33372e-014 -1.59028e-014
rhumerus -41.5639 28.9814 -95.7894
rradius 85.3912
rwrist -24.2784
rhand 0.805375 -14.749
rfingers 7.12502
rthumb 26.3616 -42.9366
lclavicle 1.33372e-014 -1.59028e-014
lhumerus -4.24868 -28.8142 50.4913
lradius 99.5652
lwrist 12.2338
lhand -3.20802 16.159
lfingers 7.12502
lthumb 22.5143 44.8664
rfemur -8.02083 5.63061 12.2949
rtibia 26.1476
rfoot -22.9387 -14.7934
rtoes -13.9071
lfemur -29.5652 -6.16755 -3.86647
ltibia 21.1337
lfoot 0.908256 20.9951
ltoes 1.35579
616
root 1.43069 15.4485 8.23539 11.2615 -10.9969 0.44653
lowerback 0.410448 -0.432345 1.37988
upperback -6.15719 -0.623219 -1.44904
thorax -6.662 -0.439685 -2.24472
lowerneck -2.96765 10.0583 16.9002
upperneck 25.1381 14.8028 -10.6383
head 10.633 7.48837 -4.93545
rclavicle 1.7052e-014 3.97569e-016
rhumerus -41.2169 29.4284 -96.1248
rradius 83.7877
rwrist -23.9467
rhand 0.480905 -14.663
rfingers 7.12502
rthumb 26.0509 -42.8968
lclavicle 1.7052e-014 3.97569e-016
lhumerus -5.8717 -30.5724 51.7586
lradius 98.6623
lwrist 10.1182
lhand -2.14525 15.0689
lfingers 7.12502
lthumb 23.5341 43.6491
rfemur -8.41053 5.5724 12.7384
rtibia 26.1607
rfoot -22.9468 -14.8556
rtoes -13.2489
lfemur -29.4251 -7.09693 -3.03924
ltibia 19.9165
lfoot 1.56483 22.3956
ltoes 2.7911
617
root 1.34828 15.4621 8.144 11.3966 -10.7834 0.393626
lowerback 0.40927 -0.509386 1.55664
upperback -6.11459 -0.719896 -1.46272
thorax -6.62418 -0.497053 -2.3522
lowerneck -2.84713 10.128 16.9506
upperneck 24.612 14.9394 -10.9179
head 10.4638 7.53447 -5.02422
rclavicle 1.72011e-014 -1.07344e-014
rhumerus -40.8795 29.9055 -96.4541
rradius 82.135
rwrist -23.3732
rhand 0.110583 -14.5767
rfingers 7.12502
rthumb 25.6963 -42.8622
lclavicle 1.72011e-014 -1.07344e-014
lhumerus -7.58708 -32.1547 53.1919
lradius 97.7246
lwrist 8.24087
lhand -1.02789 14.0422
lfingers 7.12502
lthumb 24.6055 42.4807
rfemur -8.81353 5.48002 13.188
rtibia 26.1656
rfoot -22.9174 -14.8874
rtoes -12.6652
lfemur -29.3515 -8.18917 -2.12749
ltibia 18.7458
lfoot 2.05285 24.0521
ltoes 4.55606
618
root 1.26774 15.4762 8.05417 11.5448 -10.5529 0.333575
lowerback 0.394304 -0.590564 1.7425
upperback -6.07776 -0.822084 -1.47663
thorax -6.58585 -0.557637 -2.46488
lowerneck -2.73577 10.1944 17.0175
upperneck 24.0921 15.061 -11.1773
head 10.2983 7.57736 -5.10965
rclavicle -1.16009e-014 2.26615e-014
rhumerus -40.5549 30.3862 -96.7787
rradius 80.445
rwrist -22.5406
rhand -0.2912 -14.4821
rfingers 7.12502
rthumb 25.3114 -42.8226
lclavicle -1.16009e-014 2.26615e-014
lhumerus -9.36669 -33.5832 54.7671
lradius 96.7447
lwrist 6.66361
lhand 0.091604 13.1548
lfingers 7.12502
lthumb 25.6781 41.4429
rfemur -9.23502 5.35972 13.6357
rtibia 26.1823
rfoot -22.8566 -14.8925
rtoes -12.13
lfemur -29.3491 -9.4991 -1.11597
ltibia 17.6463
lfoot 2.26106 26.023
ltoes 6.72222
